<svg xmlns="http://www.w3.org/2000/svg" width="20" height="20" viewBox="0 0 20 20">
  <g id="组_8612" data-name="组 8612" transform="translate(-303 -5927)">
    <g id="组_8611" data-name="组 8611" transform="translate(41)">
      <g id="组_8609" data-name="组 8609" transform="translate(57 27)">
        <g id="组_8585" data-name="组 8585" transform="translate(38)">
          <g id="组_8583" data-name="组 8583" transform="translate(28)">
            <g id="组_8581" data-name="组 8581" transform="translate(40 839)">
              <g id="组_8504" data-name="组 8504" transform="translate(-12 31.998)">
                <g id="工作台" transform="translate(-407.578 3012.68)">
                  <rect id="矩形_13790" data-name="矩形 13790" width="20" height="20" transform="translate(518.578 2016.323)" fill="none"/>
                </g>
              </g>
            </g>
          </g>
        </g>
      </g>
    </g>
    <path id="专家服务" d="M14,100.854a5.671,5.671,0,0,1,3.4,3.129,5.591,5.591,0,0,1,.449,2.578.527.527,0,0,1-.394.533.511.511,0,0,1-.627-.551,4.491,4.491,0,0,0-.684-2.766,4.553,4.553,0,0,0-3.026-2.1c-.2-.042-.407-.056-.61-.088a.506.506,0,0,1-.079-.981,3.283,3.283,0,0,0,2.193-2.821,3.313,3.313,0,0,0-2.587-3.514,4.04,4.04,0,0,0-.888-.079.486.486,0,1,1,0-.972,4.065,4.065,0,0,1,1.831.332,4.286,4.286,0,0,1,1.459,6.888c-.066.073-.138.14-.21.207s-.146.131-.233.207Zm-6.98,1.675.708,1.2q.481.817.963,1.634a.086.086,0,0,1-.016.13q-.8.783-1.595,1.572c-.046.046-.072.054-.123,0q-.8-.791-1.6-1.578c-.038-.037-.05-.062-.019-.114q.825-1.4,1.645-2.792C6.988,102.571,7,102.558,7.017,102.53Zm6.74,4.067a6.487,6.487,0,0,0-.314-1.218,6.887,6.887,0,0,0-3.711-4q-.275-.123-.561-.221a4.318,4.318,0,0,0,2.08-3.136,4.2,4.2,0,0,0-1.117-3.582,4.343,4.343,0,0,0-6.434.022,4.2,4.2,0,0,0-1.1,3.447,4.332,4.332,0,0,0,2.092,3.242.147.147,0,0,1-.081.039c-.177.062-.349.132-.519.21A6.89,6.89,0,0,0,.96,104.225a6.808,6.808,0,0,0-.847,2.347.514.514,0,0,0,.275.585A.554.554,0,0,0,1.075,107a.8.8,0,0,0,.134-.367,5.637,5.637,0,0,1,1.723-3.152,5.645,5.645,0,0,1,5.384-1.428,5.633,5.633,0,0,1,3.711,2.828,6.032,6.032,0,0,1,.666,1.91.542.542,0,0,0,1.065-.2Zm-6.822-5.825A3.371,3.371,0,1,1,10.3,97.4a3.363,3.363,0,0,1-3.367,3.37Zm0,0" transform="translate(304.399 5836.47)" fill="#979daf" stroke="#979daf" stroke-width="0.4"/>
  </g>
</svg>
