<svg xmlns="http://www.w3.org/2000/svg" width="20" height="20" viewBox="0 0 20 20">
  <g id="&#x5E94;&#x7528;&#x7BA1;&#x7406;" transform="translate(-289 -4999)">
    <g id="&#x7EC4;_8344" transform="translate(-55.001 6.999)">
      <path id="&#x8DEF;&#x5F84;_3217" d="M10.855,6H6.809A.809.809,0,0,0,6,6.809v4.046a.809.809,0,0,0,.809.809h4.046a.809.809,0,0,0,.809-.809V6.809A.809.809,0,0,0,10.855,6Z" transform="translate(341 4989)" fill="none" stroke="currentColor" stroke-linejoin="round" stroke-width="1.6"></path>
      <path id="&#x8DEF;&#x5F84;_3218" d="M10.855,28H6.809A.809.809,0,0,0,6,28.809v4.046a.809.809,0,0,0,.809.809h4.046a.809.809,0,0,0,.809-.809V28.809A.809.809,0,0,0,10.855,28Z" transform="translate(341 4975.901)" fill="none" stroke="currentColor" stroke-linejoin="round" stroke-width="1.6"></path>
      <path id="&#x8DEF;&#x5F84;_3219" d="M32.855,6H28.809A.809.809,0,0,0,28,6.809v4.046a.809.809,0,0,0,.809.809h4.046a.809.809,0,0,0,.809-.809V6.809A.809.809,0,0,0,32.855,6Z" transform="translate(327.9 4989)" fill="none" stroke="currentColor" stroke-linejoin="round" stroke-width="1.6"></path>
      <path id="&#x8DEF;&#x5F84;_3220" d="M32.855,28H28.809a.809.809,0,0,0-.809.809v4.046a.809.809,0,0,0,.809.809h4.046a.809.809,0,0,0,.809-.809V28.809A.809.809,0,0,0,32.855,28Z" transform="translate(327.9 4975.901)" fill="none" stroke="currentColor" stroke-linejoin="round" stroke-width="1.6"></path>
    </g>
    <g id="&#x5DE5;&#x4F5C;&#x53F0;" transform="translate(-229.578 2982.678)">
      <rect id="&#x77E9;&#x5F62;_13790" width="20" height="20" transform="translate(518.578 2016.323)" fill="none"></rect>
    </g>
  </g>
</svg>