<svg xmlns="http://www.w3.org/2000/svg" width="20" height="20" viewBox="0 0 20 20">
  <g id="&#x4F01;&#x4E1A;&#x7BA1;&#x7406;" transform="translate(-358 -4988)">
    <g id="&#x7EC4;_8368" transform="translate(92)">
      <g id="&#x7EC4;_8366" transform="translate(56)">
        <g id="&#x7EC4;_8364" transform="translate(16)">
          <g id="&#x7EC4;_8361" transform="translate(38 -1)">
            <g id="&#x7EC4;_8359" transform="translate(-133 -10)">
              <g id="&#x5DE5;&#x4F5C;&#x53F0;" transform="translate(-229.578 2982.678)">
                <rect id="&#x77E9;&#x5F62;_13790" width="20" height="20" transform="translate(518.578 2016.323)" fill="none"></rect>
              </g>
            </g>
          </g>
        </g>
      </g>
    </g>
    <g id="&#x516C;&#x53F8;&#x4FE1;&#x606F;" transform="translate(358.499 4989.462)">
      <path id="&#x8DEF;&#x5F84;_3234" d="M48.431,64.46H43.971a.461.461,0,0,0,0,.922h4.459a.461.461,0,0,0,0-.922Zm0,3.369H43.971a.462.462,0,1,0,0,.923h4.459a.462.462,0,0,0,0-.923Zm0,3.381H43.971a.462.462,0,1,0,0,.923h4.459a.462.462,0,0,0,0-.923Zm5.574,0H52.883a.462.462,0,1,0,0,.923h1.122a.462.462,0,0,0,0-.923Z" transform="translate(-39.61 -59.183)" fill="currentColor" stroke="currentColor" stroke-miterlimit="10" stroke-width="0.6"></path>
      <path id="&#x8DEF;&#x5F84;_3235" d="M24.523,29.376h-.65V24.511a2.308,2.308,0,0,0-1.092-1.956L18.922,20.2V16.419a2.292,2.292,0,0,0-2.9-2.207l-5.647,1.71A2.3,2.3,0,0,0,8.7,18.129V29.376h-.65a.461.461,0,0,0,0,.922h16.47a.461.461,0,0,0,0-.922Zm-6.521,0H9.626V18.129a1.376,1.376,0,0,1,1.006-1.318l5.64-1.714A1.372,1.372,0,0,1,18,16.415Zm4.948,0H18.922V21.282l3.369,2.059a1.37,1.37,0,0,1,.654,1.169v4.868Z" transform="translate(-7.09 -13.59)" fill="currentColor" stroke="currentColor" stroke-miterlimit="10" stroke-width="0.6"></path>
    </g>
  </g>
</svg>