<svg xmlns="http://www.w3.org/2000/svg" viewBox="0 0 14 14" class="design-iconfont">
  <g fill="currentColor">
    <path d="M56.366,1522.94H45.428a.667.667,0,1,0,0,1.333h.495v8.611a1.994,1.994,0,0,0,1.992,1.992h5.963a1.994,1.994,0,0,0,1.992-1.992v-7.295a.667.667,0,0,0-.667-.665h0a.669.669,0,0,0-.665.668v7.292a.66.66,0,0,1-.659.659H47.913a.66.66,0,0,1-.659-.659v-8.611h9.112a.667.667,0,1,0,0-1.333Z" transform="translate(-43.897 -1521.08)"/>
    <path d="M57.147,1519.579h2.659a.667.667,0,0,0,0-1.333H57.147a.667.667,0,0,0,0,1.333Z" transform="translate(-51.477 -1518.044)"/>
    <path d="M57.144,1532.31a.668.668,0,0,0-.666.668v3.977a.669.669,0,0,0,.666.665h0a.667.667,0,0,0,.666-.665v-3.979a.667.667,0,0,0-.667-.665Z" transform="translate(-51.474 -1527.139)"/>
    <path d="M64.647,1532.319a.666.666,0,0,0-.666.665v3.978a.668.668,0,0,0,.665.665h0a.666.666,0,0,0,.666-.665v-3.978a.667.667,0,0,0-.665-.665Z" transform="translate(-56.327 -1527.144)"/>
  </g>
</svg>
