<svg xmlns="http://www.w3.org/2000/svg" width="14" height="14" viewBox="0 0 14 14">
  <g id="删除" transform="translate(63.662 -1512.692)">
    <rect id="矩形_13540" data-name="矩形 13540" width="14" height="14" transform="translate(-63.662 1512.692)" fill="#fff" opacity="0"/>
    <g id="组_6412" data-name="组 6412" transform="translate(-61.878 1513.914)">
      <path id="路径_9021" data-name="路径 9021" d="M-51.241,1516.422h-9.3a.568.568,0,0,0-.565.565.568.568,0,0,0,.566.568h.419v7.321a1.7,1.7,0,0,0,1.694,1.693h5.07a1.7,1.7,0,0,0,1.693-1.693v-6.2a.567.567,0,0,0-.567-.565h0a.568.568,0,0,0-.565.567v6.2a.561.561,0,0,1-.56.56h-5.07a.561.561,0,0,1-.56-.56v-7.321h7.746a.569.569,0,0,0,.566-.565A.568.568,0,0,0-51.241,1516.422Z" transform="translate(61.106 -1515.013)" fill="#fff"/>
      <path id="路径_9022" data-name="路径 9022" d="M-55.659,1515.6H-53.4a.565.565,0,0,0,.4-.167.557.557,0,0,0,.165-.4.56.56,0,0,0-.167-.4.565.565,0,0,0-.4-.165h-2.261a.568.568,0,0,0-.565.565.563.563,0,0,0,.165.4A.565.565,0,0,0-55.659,1515.6Z" transform="translate(59.743 -1514.468)" fill="#fff"/>
      <path id="路径_9023" data-name="路径 9023" d="M-55.66,1520.327a.568.568,0,0,0-.565.568v3.381a.568.568,0,0,0,.565.566h0a.562.562,0,0,0,.4-.165.565.565,0,0,0,.167-.4v-3.383a.563.563,0,0,0-.167-.4.562.562,0,0,0-.4-.166Z" transform="translate(59.743 -1516.104)" fill="#fff"/>
      <path id="路径_9024" data-name="路径 9024" d="M-52.533,1520.33a.562.562,0,0,0-.4.165.565.565,0,0,0-.167.4v3.381a.568.568,0,0,0,.565.566h0a.562.562,0,0,0,.4-.165.565.565,0,0,0,.167-.4V1520.9a.568.568,0,0,0-.565-.566Z" transform="translate(58.871 -1516.104)" fill="#fff"/>
    </g>
  </g>
</svg>
