<svg xmlns="http://www.w3.org/2000/svg" width="20" height="20" viewBox="0 0 20 20">
  <g id="&#x90E8;&#x95E8;&#x7BA1;&#x7406;" transform="translate(-210 -4988)">
    <path id="&#x7EC4;&#x7EC7;&#x67B6;&#x6784;" d="M35.728,43.955H34.441V41a.732.732,0,0,0-.772-.682h-5.4V38.045h1.287a.732.732,0,0,0,.772-.682V34.182a.732.732,0,0,0-.772-.682h-3.6a.732.732,0,0,0-.772.682v3.182a.732.732,0,0,0,.772.682h1.287v2.273h-5.4a.732.732,0,0,0-.772.682v2.955H19.772a.732.732,0,0,0-.772.682v3.182a.732.732,0,0,0,.772.682h3.6a.732.732,0,0,0,.772-.682V44.636a.732.732,0,0,0-.772-.682H22.088V41.227h5.147v2.727H25.949a.732.732,0,0,0-.772.682v3.182a.732.732,0,0,0,.772.682h3.6a.732.732,0,0,0,.772-.682V44.636a.732.732,0,0,0-.772-.682H28.265V41.227h5.147v2.727H32.125a.732.732,0,0,0-.772.682v3.182a.732.732,0,0,0,.772.682h3.6a.732.732,0,0,0,.772-.682V44.636A.732.732,0,0,0,35.728,43.955Zm-9.522-9.545h3.088v2.727H26.206ZM23.118,44.864v2.727H20.029V44.864Zm6.176,2.727H26.206V44.864h3.088Zm6.176,0H32.382V44.864h3.088Z" transform="translate(192.5 4957)" fill="currentColor" stroke="#979daf" stroke-width="0.4"></path>
    <g id="&#x7EC4;_8364" transform="translate(16)">
      <g id="&#x7EC4;_8361" transform="translate(38 -1)">
        <g id="&#x7EC4;_8359" transform="translate(-133 -10)">
          <g id="&#x5DE5;&#x4F5C;&#x53F0;" transform="translate(-229.578 2982.678)">
            <rect id="&#x77E9;&#x5F62;_13790" width="20" height="20" transform="translate(518.578 2016.323)" fill="none"></rect>
          </g>
        </g>
      </g>
    </g>
  </g>
</svg>