<svg width="14" height="12" viewBox="0 0 14 12" fill="currentColor" xmlns="http://www.w3.org/2000/svg">
<path d="M7.3522 6.3797L13.1772 1.82077C13.2468 1.7672 13.2861 1.68327 13.2861 1.59577V0.215412C13.2861 0.0957688 13.1486 0.0296973 13.0558 0.102912L7.00042 4.8422L0.94506 0.102912C0.924005 0.0864238 0.898735 0.0761933 0.87214 0.0733899C0.845545 0.0705866 0.818698 0.0753236 0.794668 0.0870591C0.770638 0.0987946 0.750395 0.117055 0.736254 0.139753C0.722113 0.162451 0.714645 0.188669 0.714702 0.215412V1.59577C0.714702 1.68327 0.755773 1.7672 0.823631 1.82077L6.64685 6.3797C6.85577 6.5422 7.14506 6.5422 7.3522 6.3797V6.3797ZM7.3522 11.8083L13.1772 7.24934C13.2468 7.19577 13.2861 7.11184 13.2861 7.02434V5.64398C13.2861 5.52434 13.1486 5.45827 13.0558 5.53148L7.00042 10.2708L0.94506 5.53148C0.924005 5.515 0.898735 5.50476 0.87214 5.50196C0.845545 5.49916 0.818698 5.5039 0.794668 5.51563C0.770638 5.52737 0.750395 5.54563 0.736254 5.56832C0.722113 5.59102 0.714645 5.61724 0.714702 5.64398V7.02434C0.714702 7.11184 0.755773 7.19577 0.823631 7.24934L6.64685 11.8083C6.85577 11.9708 7.14506 11.9708 7.3522 11.8083V11.8083Z" fill="#666666"/>
</svg>
