<svg xmlns="http://www.w3.org/2000/svg" id="&#x6536;&#x7F29;" width="20" height="20" viewBox="0 0 20 20" fill="currentColor">
  <rect id="&#x77E9;&#x5F62;_13572" width="20" height="20"  opacity="0"></rect>
  <g id="&#x7EC4;_7619" transform="translate(1.403 1.409)">
    <path id="&#x8DEF;&#x5F84;_2396" d="M82.833,2158.329a1.043,1.043,0,0,0-1.042,1.042v1.567l-3.332-3.33a1.067,1.067,0,0,0-1.474,0,1.044,1.044,0,0,0,0,1.473l3.331,3.328h-2a1.042,1.042,0,1,0,0,2.084h4.394c.021,0,.041-.006.062-.007s.042.006.063.006a1.034,1.034,0,0,0,1.034-1.121c0-.028.008-.055.008-.083v-3.918A1.043,1.043,0,0,0,82.833,2158.329Z" transform="translate(-76.681 -2157.313)" ></path>
    <path id="&#x8DEF;&#x5F84;_2397" d="M83.569,2167.606a1.032,1.032,0,0,0-.817-.3c-.028,0-.054-.008-.082-.008H78.752a1.042,1.042,0,1,0,0,2.083h1.567l-3.33,3.332a1.042,1.042,0,0,0,1.474,1.473l3.328-3.331v2a1.042,1.042,0,0,0,2.084,0v-4.394c0-.021-.006-.041-.007-.062A1.037,1.037,0,0,0,83.569,2167.606Z" transform="translate(-76.681 -2157.313)" ></path>
    <path id="&#x8DEF;&#x5F84;_2398" d="M93.569,2172.717l-3.331-3.329h2a1.042,1.042,0,1,0,0-2.083H87.847c-.021,0-.041.005-.062.006a1.028,1.028,0,0,0-1.1,1.115c0,.028-.008.055-.008.084v3.918a1.042,1.042,0,1,0,2.083,0v-1.568l3.333,3.331a1.042,1.042,0,1,0,1.472-1.474Z" transform="translate(-76.681 -2157.313)" ></path>
    <path id="&#x8DEF;&#x5F84;_2399" d="M86.986,2164.192a1.033,1.033,0,0,0,.736.305h0c.028,0,.054-.006.082-.008s.053.008.081.008H91.8a1.042,1.042,0,1,0,0-2.084H90.237l3.329-3.332a1.042,1.042,0,0,0,0-1.473,1.067,1.067,0,0,0-1.473,0l-3.329,3.331v-2a1.042,1.042,0,1,0-2.083,0v4.394c0,.021,0,.041.006.063A1.034,1.034,0,0,0,86.986,2164.192Z" transform="translate(-76.681 -2157.313)" ></path>
  </g>
</svg>