<svg xmlns="http://www.w3.org/2000/svg" id="&#x5C55;&#x5F00;" width="20" height="20" viewBox="0 0 20 20" fill="currentColor">
  <rect id="&#x77E9;&#x5F62;_13573" width="20" height="20"  opacity="0"></rect>
  <g id="&#x7EC4;_7621" transform="translate(1.115 1.116)">
    <path id="&#x8DEF;&#x5F84;_2400" d="M89.468,2143.016a.987.987,0,0,0-.987.987v1.783l-3.613-3.613a.833.833,0,0,0-1.178,1.179l3.612,3.612H85.519a.987.987,0,0,0,0,1.975h1.975a2.962,2.962,0,0,0,2.961-2.962V2144A.987.987,0,0,0,89.468,2143.016Z" transform="translate(-72.686 -2131.17)" ></path>
    <path id="&#x8DEF;&#x5F84;_2401" d="M87.494,2131.17H85.519a.987.987,0,0,0,0,1.974H87.3l-3.613,3.613a.833.833,0,0,0,1.178,1.178l3.613-3.612v1.783a.987.987,0,1,0,1.974,0v-1.975A2.962,2.962,0,0,0,87.494,2131.17Z" transform="translate(-72.686 -2131.17)" ></path>
    <path id="&#x8DEF;&#x5F84;_2402" d="M78.273,2142.173l-3.613,3.613V2144a.987.987,0,0,0-1.974,0v1.974a2.962,2.962,0,0,0,2.962,2.962h1.974a.987.987,0,0,0,0-1.975H75.839l3.613-3.612a.834.834,0,1,0-1.179-1.179Z" transform="translate(-72.686 -2131.17)" ></path>
    <path id="&#x8DEF;&#x5F84;_2403" d="M75.839,2133.144h1.783a.987.987,0,0,0,0-1.974H74.66a1.974,1.974,0,0,0-1.974,1.974v2.962a.987.987,0,1,0,1.974,0v-1.784l3.613,3.613a.833.833,0,0,0,1.179-1.178Z" transform="translate(-72.686 -2131.17)" ></path>
  </g>
</svg>