<svg xmlns="http://www.w3.org/2000/svg" viewBox="0 0 20 20"   class="design-iconfont">
  <g fill="currentColor">
    <path d="M166.312,2148.706h-10.2a2.4,2.4,0,0,1-2.4-2.4v-12.5a2.4,2.4,0,0,1,2.4-2.4h10.2a2.4,2.4,0,0,1,2.4,2.4v.945a.833.833,0,1,1-1.666,0v-.945a.736.736,0,0,0-.736-.735h-10.2a.736.736,0,0,0-.735.735v12.5a.737.737,0,0,0,.735.736h10.2a.737.737,0,0,0,.736-.736v-.952a.833.833,0,1,1,1.666,0v.952A2.4,2.4,0,0,1,166.312,2148.706Z" transform="translate(-151.631 -2130.054)"/>
    <path d="M166.959,2143.308a.834.834,0,0,1-.483-1.514l2.454-1.739-2.454-1.741a.833.833,0,0,1,.964-1.36l3.213,2.293a1.143,1.143,0,0,1,0,1.615l-.108.091-3.1,2.2A.826.826,0,0,1,166.959,2143.308Z" transform="translate(-151.631 -2130.054)"/>
    <path d="M169.7,2140.888h-7.156a.833.833,0,1,1,0-1.667H169.7a.833.833,0,0,1,0,1.667Z" transform="translate(-151.631 -2130.054)"/>
    <path d="M158.869,2145.713l-3.9,1.425v-14.167l3.9,1.424a1.666,1.666,0,0,1,1.1,1.566v8.186A1.666,1.666,0,0,1,158.869,2145.713Z" transform="translate(-151.631 -2130.054)"/>
  </g>
</svg>
