<svg xmlns="http://www.w3.org/2000/svg" width="14" height="14" viewBox="0 0 14 14">
  <g id="重新上传" transform="translate(70.001 -1434.999)">
    <rect id="矩形_13541" data-name="矩形 13541" width="14" height="14" transform="translate(-70.001 1434.999)" fill="#fff" opacity="0"/>
    <g id="组_6415" data-name="组 6415" transform="translate(-69.097 1436.23)">
      <path id="路径_9025" data-name="路径 9025" d="M-62.941,1448.3a5.732,5.732,0,0,1-2.245-.453,5.751,5.751,0,0,1-1.834-1.236,5.755,5.755,0,0,1-1.236-1.834,5.731,5.731,0,0,1-.454-2.245,5.731,5.731,0,0,1,.454-2.245,5.756,5.756,0,0,1,1.236-1.834,5.753,5.753,0,0,1,1.834-1.236,5.734,5.734,0,0,1,2.245-.453,5.74,5.74,0,0,1,3.226.985,5.77,5.77,0,0,1,2.09,2.538l-.806.341a4.886,4.886,0,0,0-4.509-2.989,4.9,4.9,0,0,0-4.894,4.894,4.9,4.9,0,0,0,4.894,4.894,4.89,4.89,0,0,0,3.739-1.735l.668.565A5.761,5.761,0,0,1-62.941,1448.3Z" transform="translate(68.71 -1436.758)" fill="#fff"/>
      <path id="路径_9026" data-name="路径 9026" d="M-53.789,1444.631l1.195-3.243-3.406.587Z" transform="translate(64.896 -1438.147)" fill="#fff"/>
      <g id="组_6414" data-name="组 6414" transform="translate(4.111 2.251)">
        <path id="路径_9027" data-name="路径 9027" d="M-61.454,1440.085l-1.352,2.343a.223.223,0,0,0,.193.335h2.7a.223.223,0,0,0,.193-.335l-1.352-2.343A.223.223,0,0,0-61.454,1440.085Z" transform="translate(62.836 -1439.974)" fill="#fff"/>
        <rect id="矩形_13542" data-name="矩形 13542" width="1.45" height="4.35" rx="0.319" transform="translate(0.851 2.454)" fill="#fff"/>
      </g>
    </g>
  </g>
</svg>
