<svg xmlns="http://www.w3.org/2000/svg" width="20" height="20" viewBox="0 0 20 20">
  <g id="&#x89D2;&#x8272;&#x7BA1;&#x7406;" transform="translate(-266 -4988)">
    <g id="&#x7EC4;_8366" transform="translate(56)">
      <g id="&#x7EC4;_8364" transform="translate(16)">
        <g id="&#x7EC4;_8361" transform="translate(38 -1)">
          <g id="&#x7EC4;_8359" transform="translate(-133 -10)">
            <g id="&#x5DE5;&#x4F5C;&#x53F0;" transform="translate(-229.578 2982.678)">
              <rect id="&#x77E9;&#x5F62;_13790" width="20" height="20" transform="translate(518.578 2016.323)" fill="none"></rect>
            </g>
          </g>
        </g>
      </g>
    </g>
    <g id="&#x89D2;&#x8272;&#x7BA1;&#x7406;_&#x64CD;&#x4F5C;_jurassic" transform="translate(205 4894.001)">
      <path id="&#x8DEF;&#x5F84;_3231" d="M382.474,285.369a4.14,4.14,0,0,0-2.171-2.188,2.718,2.718,0,0,0,.814-1.96,2.424,2.424,0,1,0-4.832,0,2.715,2.715,0,0,0,.814,1.96,4.057,4.057,0,0,0-1.283.871A4.148,4.148,0,0,0,374.6,287a.453.453,0,1,0,.9,0,3.2,3.2,0,0,1,6.4,0,.453.453,0,1,0,.9,0A4.167,4.167,0,0,0,382.474,285.369Zm-5.287-4.148a1.519,1.519,0,1,1,1.514,1.633A1.58,1.58,0,0,1,377.187,281.221Z" transform="translate(-304.937 -177.709)" fill="currentColor" stroke="#979daf" stroke-width="0.5"></path>
      <path id="&#x8DEF;&#x5F84;_3232" d="M194.9,321.167h-2.414a.594.594,0,0,1,0-1.167H194.9a.594.594,0,0,1,0,1.167Zm0,4.084h-2.414a.594.594,0,0,1,0-1.167H194.9a.594.594,0,0,1,0,1.167Z" transform="translate(-125.666 -219.916)" fill="currentColor" stroke="#979daf" stroke-width="0.5"></path>
      <path id="&#x8DEF;&#x5F84;_3233" d="M67.695,111.17H65.655a1.718,1.718,0,0,1-1.064-.407A1.54,1.54,0,0,1,64,109.585v-12a1.54,1.54,0,0,1,.592-1.178A1.721,1.721,0,0,1,65.655,96H77.439a1.086,1.086,0,0,1,.964.554,2.009,2.009,0,0,1,.239,1.03v1.5a.526.526,0,1,1-1.046,0v-1.5a.8.8,0,0,0-.065-.385c-.008-.015-.018-.031-.092-.031H65.655a.77.77,0,0,0-.444.179.391.391,0,0,0-.165.237v12a.4.4,0,0,0,.165.237.757.757,0,0,0,.444.179h2.039a.587.587,0,0,1,0,1.167Z" transform="translate(0 0)" fill="currentColor" stroke="#979daf" stroke-width="0.5"></path>
    </g>
  </g>
</svg>