<svg width="20" height="20" viewBox="0 0 20 20" fill="none" xmlns="http://www.w3.org/2000/svg">
<path fill-rule="evenodd" clip-rule="evenodd" d="M3.33317 9.16669C3.33317 5.94503 5.94484 3.33335 9.1665 3.33335C12.3882 3.33335 14.9998 5.94503 14.9998 9.16669C14.9998 10.7383 14.3783 12.1648 13.3677 13.2137C13.3391 13.2356 13.3117 13.2596 13.2856 13.2858C13.2594 13.3119 13.2354 13.3393 13.2135 13.3679C12.1646 14.3785 10.7381 15 9.1665 15C5.94484 15 3.33317 12.3883 3.33317 9.16669ZM13.8479 15.0266C12.5648 16.053 10.9373 16.6667 9.1665 16.6667C5.02437 16.6667 1.6665 13.3088 1.6665 9.16669C1.6665 5.02455 5.02437 1.66669 9.1665 1.66669C13.3086 1.66669 16.6665 5.02455 16.6665 9.16669C16.6665 10.9375 16.0528 12.565 15.0264 13.8481L18.0891 16.9108C18.4145 17.2362 18.4145 17.7638 18.0891 18.0893C17.7637 18.4147 17.236 18.4147 16.9106 18.0893L13.8479 15.0266Z" fill="#333333"/>
</svg>
