<svg xmlns="http://www.w3.org/2000/svg" width="20" height="20" viewBox="0 0 20 20">
  <g id="角色" transform="translate(-498.415 -2894.014)">
    <rect id="矩形_15193" data-name="矩形 15193" width="20" height="20" transform="translate(498.415 2894.014)" fill="#515e78" opacity="0"/>
    <g id="组_12065" data-name="组 12065">
      <g id="组_12064" data-name="组 12064">
        <path id="路径_10795" data-name="路径 10795" d="M508.4,2896.9a3.2,3.2,0,1,1-2.266.939,3.2,3.2,0,0,1,2.266-.939m0-1.25a4.454,4.454,0,1,0,4.456,4.455,4.454,4.454,0,0,0-4.456-4.455Z" fill="#1b5ec9"/>
        <path id="路径_10796" data-name="路径 10796" d="M508.888,2912.373c-1.952,0-3.861-.018-6.882-.047l-.869-.007v-.62a8.482,8.482,0,0,1,2.108-5.674,7.25,7.25,0,0,1,2.313-1.741,6.656,6.656,0,0,1,5.713,0l-.536,1.13a5.393,5.393,0,0,0-2.322-.525c-3.139,0-5.725,2.725-6,6.191,5.191.049,7.034.064,12.006,0a7.481,7.481,0,0,0-.375-1.818l1.183-.4a8.783,8.783,0,0,1,.469,2.838v.617l-.617.008C512.423,2912.359,510.638,2912.373,508.888,2912.373Z" fill="#1b5ec9"/>
        <g id="组_12063" data-name="组 12063">
          <g id="组_12062" data-name="组 12062">
            <path id="路径_10797" data-name="路径 10797" d="M513.143,2908.921a2.047,2.047,0,1,1,1.575-.737h0A2.042,2.042,0,0,1,513.143,2908.921Zm0-2.845a.568.568,0,0,0-.074,0,.8.8,0,1,0,.685,1.3h0a.8.8,0,0,0-.611-1.308Z" fill="#1b5ec9" opacity="0.5"/>
          </g>
        </g>
      </g>
    </g>
  </g>
</svg>
