<svg xmlns="http://www.w3.org/2000/svg" width="20" height="20" viewBox="0 0 20 20" fill="currentColor">
  <g id="&#x767D;&#x5929;&#x6A21;&#x5F0F;" transform="translate(-102.38 -2130.054)">
    <rect id="&#x77E9;&#x5F62;_13763" width="20" height="20" transform="translate(102.38 2130.054)"  opacity="0"></rect>
    <g id="&#x7EC4;_8141">
      <circle id="&#x692D;&#x5706;_72" cx="6.667" cy="6.667" r="6.667" transform="translate(105.713 2133.388)" ></circle>
      <g id="&#x7EC4;_8137">
        <path id="&#x8DEF;&#x5F84;_3188" d="M112.38,2132.983a.855.855,0,0,1-.855-.855v-.386a.854.854,0,0,1,1.709,0v.386A.854.854,0,0,1,112.38,2132.983Z" ></path>
        <path id="&#x8DEF;&#x5F84;_3189" d="M112.38,2149.221a.855.855,0,0,1-.855-.855v-.386a.854.854,0,0,1,1.709,0v.386A.854.854,0,0,1,112.38,2149.221Z" ></path>
      </g>
      <g id="&#x7EC4;_8138">
        <path id="&#x8DEF;&#x5F84;_3190" d="M107.379,2135.054a.853.853,0,0,1-1.208,0l-.273-.273a.855.855,0,1,1,1.208-1.209l.273.273A.855.855,0,0,1,107.379,2135.054Z" ></path>
        <path id="&#x8DEF;&#x5F84;_3191" d="M118.861,2146.536a.853.853,0,0,1-1.208,0l-.273-.273a.855.855,0,0,1,1.209-1.208l.272.272A.855.855,0,0,1,118.861,2146.536Z" ></path>
      </g>
      <g id="&#x7EC4;_8139">
        <path id="&#x8DEF;&#x5F84;_3192" d="M105.308,2140.054a.854.854,0,0,1-.854.855h-.386a.854.854,0,1,1,0-1.709h.386A.854.854,0,0,1,105.308,2140.054Z" ></path>
        <path id="&#x8DEF;&#x5F84;_3193" d="M121.546,2140.054a.854.854,0,0,1-.854.855h-.386a.854.854,0,1,1,0-1.709h.386A.854.854,0,0,1,121.546,2140.054Z" ></path>
      </g>
      <g id="&#x7EC4;_8140">
        <path id="&#x8DEF;&#x5F84;_3194" d="M107.379,2145.055a.853.853,0,0,1,0,1.208l-.273.273a.855.855,0,1,1-1.208-1.209l.273-.272A.853.853,0,0,1,107.379,2145.055Z" ></path>
        <path id="&#x8DEF;&#x5F84;_3195" d="M118.861,2133.572a.855.855,0,0,1,0,1.209l-.272.273a.855.855,0,0,1-1.209-1.209l.273-.273A.855.855,0,0,1,118.861,2133.572Z" ></path>
      </g>
    </g>
  </g>
</svg>