<svg xmlns="http://www.w3.org/2000/svg" width="20" height="20" viewBox="0 0 20 20">
  <g id="企业角色" transform="translate(-364.452 -2277.419)">
    <rect id="矩形_15190" data-name="矩形 15190" width="20" height="20" transform="translate(364.452 2277.419)" fill="#33b4ff" opacity="0"/>
    <g id="组_12058" data-name="组 12058">
      <path id="路径_10778" data-name="路径 10778" d="M377.44,2295.622h-9.1a.858.858,0,0,1-.859-.859v-10.948a.859.859,0,0,1,.554-.8l8.868-3.367a.859.859,0,0,1,1.164.8v5.243h-1.25v-3.432a.859.859,0,0,0-1.165-.8l-6.367,2.418a.859.859,0,0,0-.554.8v8.83a.859.859,0,0,0,.859.86h7.852Z" fill="#33b4ff"/>
      <path id="路径_10779" data-name="路径 10779" d="M366.64,2294.382h15.625v1.25H366.64Z" fill="#33b4ff"/>
      <path id="路径_10780" data-name="路径 10780" d="M374.823,2286.5h-4.667v1.25h4.667Z" fill="#33b4ff"/>
      <path id="路径_10781" data-name="路径 10781" d="M374.823,2290.153h-4.667v1.252h4.667Z" fill="#33b4ff"/>
      <path id="路径_10782" data-name="路径 10782" d="M379.087,2287.672a.813.813,0,0,1,.811.811,2.038,2.038,0,0,1-.206.788,1.911,1.911,0,0,1-.482.667l-.135.107a1.2,1.2,0,0,0-.118-.106,1.893,1.893,0,0,1-.477-.664,2.056,2.056,0,0,1-.2-.792.811.811,0,0,1,.811-.81m1.831,4.491v.449H377.25v-.449h3.672m-1.831-5.742a2.06,2.06,0,0,0-2.061,2.06h0a3.432,3.432,0,0,0,1.15,2.429h-.1A2.086,2.086,0,0,0,376,2293v0a.859.859,0,0,0,.859.86h4.45a.86.86,0,0,0,.86-.86h0a2.086,2.086,0,0,0-2.086-2.086h-.093a3.435,3.435,0,0,0,1.16-2.431,2.061,2.061,0,0,0-2.061-2.061h.005Z" fill="#33b4ff" opacity="0.5"/>
    </g>
  </g>
</svg>
