<svg xmlns="http://www.w3.org/2000/svg" width="14" height="14" viewBox="0 0 14 14">
  <g id="预览" transform="translate(-1478 -810)">
    <rect id="矩形_13546" data-name="矩形 13546" width="14" height="14" transform="translate(1478 810)" fill="#fff" opacity="0"/>
    <g id="组_6419" data-name="组 6419" transform="translate(1479.528 811.701)">
      <path id="路径_9030" data-name="路径 9030" d="M280.478,256.519a.42.42,0,0,0-.419-.419h-5.341a.419.419,0,1,0,0,.838h5.341A.42.42,0,0,0,280.478,256.519Zm-5.76,2.086a.419.419,0,1,0,0,.838h2.494a.419.419,0,1,0,0-.838Zm6.006,4.291a.373.373,0,0,0-.09-.068,2.057,2.057,0,0,0,.375-1.186,2.111,2.111,0,1,0-2.11,2.083,2.125,2.125,0,0,0,1.158-.341.419.419,0,0,0,.076.1l1.087,1.087a.419.419,0,0,0,.593-.593Zm-1.826.008a1.262,1.262,0,1,1,1.279-1.262A1.271,1.271,0,0,1,278.9,262.9Z" transform="translate(-271.986 -253.887)" fill="#fff"/>
      <path id="路径_9031" data-name="路径 9031" d="M103.272,74.378H98.621a.827.827,0,0,1-.835-.814V65.441a.827.827,0,0,1,.835-.814h7.143a.827.827,0,0,1,.835.814v4.05h0a.42.42,0,0,0,.84,0c0-.015,0-.029,0-.045V65.428c0-.9-.36-1.628-1.279-1.628H98.671A1.655,1.655,0,0,0,97,65.428v8.138a1.655,1.655,0,0,0,1.671,1.628h4.6a.408.408,0,1,0,.005-.817Z" transform="translate(-97 -63.8)" fill="#fff"/>
      <path id="路径_9032" data-name="路径 9032" d="M832.7,607.619a.42.42,0,1,0,.42-.419A.42.42,0,0,0,832.7,607.619Z" transform="translate(-823.098 -600.302)" fill="#fff"/>
    </g>
  </g>
</svg>
