<svg xmlns="http://www.w3.org/2000/svg" viewBox="0 0 32 32" class="design-iconfont">
  <g fill="#8996af">
    <path d="M12.281,0A10.651,10.651,0,1,1,1.63,10.651,10.652,10.652,0,0,1,12.281,0Zm0,3.224a7.427,7.427,0,1,0,7.426,7.427A7.427,7.427,0,0,0,12.281,3.224ZM19.514,20.24c-.254.185-.315.247-.122.5,1.5,1.958,1.068,1.577,2.559,3.528,3.137,4.106,8.3-1.1,3.888-3.843-2.153-1.328-3.691-2.04-3.888-2.214-.3-.109-.311-.136-.5.117a8.81,8.81,0,0,1-1.936,1.914Z" transform="translate(1.371 3)"/>
    <path d="M195.8,196.422h10.161a.27.27,0,0,1,.27.27v2.343a.27.27,0,0,1-.27.27H195.8a.27.27,0,0,1-.27-.27v-2.343a.27.27,0,0,1,.27-.27Z" transform="translate(-187.169 -184.183)"/>
  </g>
</svg>
