<svg xmlns="http://www.w3.org/2000/svg" viewBox="0 0 32 32" class="design-iconfont">
  <g fill="#4a86ff">
    <path d="M12.264,0A10.635,10.635,0,1,1,1.63,10.635,10.636,10.636,0,0,1,12.264,0Zm0,3.219a7.415,7.415,0,1,0,7.415,7.415A7.416,7.416,0,0,0,12.264,3.219Zm7.222,16.99c-.254.185-.315.246-.122.5,1.494,1.955,1.067,1.575,2.555,3.523,3.132,4.1,8.288-1.1,3.882-3.837-2.149-1.326-3.685-2.037-3.882-2.211-.3-.109-.311-.136-.5.116a8.8,8.8,0,0,1-1.934,1.911Z" transform="translate(1.37 3)"/>
    <path d="M195.8,196.756h3.5a.135.135,0,0,0,.135-.135v-3.5a.27.27,0,0,1,.269-.269h2.34a.27.27,0,0,1,.269.269v3.5a.135.135,0,0,0,.135.135h3.5a.27.27,0,0,1,.269.269v2.34a.27.27,0,0,1-.269.269h-3.5a.135.135,0,0,0-.135.135v3.5a.27.27,0,0,1-.269.269H199.7a.27.27,0,0,1-.269-.269v-3.5a.135.135,0,0,0-.135-.135h-3.5a.27.27,0,0,1-.269-.269v-2.34a.27.27,0,0,1,.269-.269Z" transform="translate(-187.178 -184.531)"/>
  </g>
</svg>
