<svg xmlns="http://www.w3.org/2000/svg" viewBox="0 0 24 24" class="design-iconfont">
  <g transform="translate(-721 -117)">
    <rect width="24" height="24" rx="4" transform="translate(721 117)" fill="rgba(74,134,255,.1)"/>
    <g fill="#4a86ff">
      <path d="M542.529,428.015l-1.115-1.852a2.139,2.139,0,1,0-2.979-.082l-1.287,1.938a1.308,1.308,0,0,0-1.185,1.33v1.265a1.3,1.3,0,0,0,1.266,1.335h5.3a1.3,1.3,0,0,0,1.266-1.335v-1.265A1.3,1.3,0,0,0,542.529,428.015Z" transform="translate(197.228 -295.095)"/>
      <path d="M124.04,114.835,124.6,114a3.371,3.371,0,0,1,4.225-4.65v-2.9a2.306,2.306,0,0,0-2.3-2.3h-8.814a2.306,2.306,0,0,0-2.3,2.3v10.889a2.306,2.306,0,0,0,2.3,2.3h4.928a2.606,2.606,0,0,1-.254-1.12V117.25a2.57,2.57,0,0,1,1.659-2.415Zm-5.216-7.673h6.422a.8.8,0,1,1,0,1.6h-6.422a.8.8,0,1,1,0-1.6Zm2.271,9.23h-2.271a.8.8,0,1,1,0-1.6H121.1a.8.8,0,1,1,0,1.6Zm-2.271-4.024a.8.8,0,1,1,0-1.6h3.73a.8.8,0,1,1,0,1.6Z" transform="translate(609.577 17.003)"/>
      <path d="M541.777,423.428a2.138,2.138,0,1,0-3.292,2.7L537.2,428.07a1.308,1.308,0,0,0-1.185,1.33v1.265a1.373,1.373,0,0,0,.138.6A12.423,12.423,0,0,0,541.777,423.428Z" transform="translate(197.178 -295.145)"/>
      <path d="M125.3,108.759h-6.422a.8.8,0,0,1,0-1.6H125.3a.8.8,0,0,1,.6.274,12.439,12.439,0,0,0,.446-3.295h-8.584a2.306,2.306,0,0,0-2.3,2.3v10a12.373,12.373,0,0,0,2.653-.626.815.815,0,0,1-.032-.222.8.8,0,0,1,.8-.8h1.4a12.449,12.449,0,0,0,5.182-6.053.8.8,0,0,1-.162.017Zm-2.692,3.609h-3.73a.8.8,0,0,1,0-1.6h3.73a.8.8,0,0,1,0,1.6Z" transform="translate(609.527 17.003)"/>
      <path d="M118.026,107.96a.8.8,0,0,1,.8-.8h1.887a12.38,12.38,0,0,0,1.659-3.021h-4.663a2.306,2.306,0,0,0-2.3,2.3v4.807a12.4,12.4,0,0,0,3.883-2.492h-.465a.8.8,0,0,1-.8-.8Z" transform="translate(609.576 17.004)"/>
    </g>
  </g>
</svg>
