<svg xmlns="http://www.w3.org/2000/svg" viewBox="0 0 24 24" class="design-iconfont">
  <g transform="translate(-721 -189)">
    <rect width="24" height="24" rx="4" transform="translate(721 189)" fill="rgba(74,134,255,.1)"/>
    <rect width="5.648" height="5.648" rx="1.446" fill="#4a86ff" transform="translate(724 197.93)"/>
    <rect width="4.344" height="4.344" rx="1.112" fill="#4a86ff" transform="translate(737.685 192.499)"/>
    <rect width="4.344" height="4.344" rx="1.112" fill="#4a86ff" transform="translate(737.685 198.582)"/>
    <rect width="4.344" height="4.344" rx="1.112" fill="#4a86ff" transform="translate(737.685 205.098)"/>
    <path d="M366.384,2593.668H360.6v-1.3h4.485v-2.7a3.444,3.444,0,0,1,3.441-3.441h2.936v1.3h-2.936a2.14,2.14,0,0,0-2.137,2.137Z" transform="translate(367.096 -2392.262)" fill="#4a86ff"/>
    <path d="M371.458,2600.849h-2.936a3.444,3.444,0,0,1-3.441-3.441v-3.139H360.6v-1.3h5.788v4.442a2.14,2.14,0,0,0,2.137,2.137h2.936Z" transform="translate(367.096 -2392.927)" fill="#4a86ff"/>
    <path fill="#4a86ff" d="M0 0H5.29V1.303H0z" transform="translate(732.829 200.039)"/>
  </g>
</svg>
