<svg xmlns="http://www.w3.org/2000/svg" viewBox="0 0 24 24" class="design-iconfont">
  <g transform="translate(-721 -261)">
    <rect width="24" height="24" rx="4" transform="translate(721 261)" fill="rgba(74,134,255,.1)"/>
    <rect width="6.382" height="6.382" rx="1.586" fill="#4a86ff" transform="translate(724 269.931)"/>
    <path d="M258.856,2582.568h-6.541V2581.1h5.068v-2.321a3.892,3.892,0,0,1,3.888-3.887h3.318v1.472h-3.318a2.418,2.418,0,0,0-2.415,2.415Z" transform="translate(475.858 -2308.709)" fill="#4a86ff"/>
    <path d="M264.588,2589.424h-3.318a3.892,3.892,0,0,1-3.888-3.888v-2.566h-5.068V2581.5h6.541v4.038a2.418,2.418,0,0,0,2.415,2.415h3.318Z" transform="translate(475.858 -2309.183)" fill="#4a86ff"/>
    <path d="M267.305,2588.676l-2.574-2.23a.632.632,0,0,0-1.046.478v4.459a.632.632,0,0,0,1.046.478l2.574-2.23A.631.631,0,0,0,267.305,2588.676Z" transform="translate(475.043 -2309.526)" fill="#4a86ff"/>
    <path d="M267.305,2574.926l-2.574-2.229a.632.632,0,0,0-1.046.478v4.458a.632.632,0,0,0,1.046.478l2.574-2.23A.632.632,0,0,0,267.305,2574.926Z" transform="translate(475.043 -2308.541)" fill="#4a86ff"/>
  </g>
</svg>
