<svg xmlns="http://www.w3.org/2000/svg" viewBox="0 0 24 24" class="design-iconfont">
  <g transform="translate(-721 -153)">
    <rect width="24" height="24" rx="4" transform="translate(721 153)" fill="rgba(74,134,255,.1)"/>
    <path d="M96.171,87.26h1.876a.758.758,0,0,1,.758.758V89.9a.758.758,0,0,1-.758.758H96.171a.758.758,0,0,1-.758-.758v-.758h-.359a1.874,1.874,0,0,1-1.876-1.876V84.734H91.3v3.285a.758.758,0,0,1-.758.758H82.678a.758.758,0,0,1-.758-.758v-7.9a.758.758,0,0,1,.758-.758h2.564V76H82.678a.734.734,0,0,1-.758-.758v-.758a.758.758,0,0,1,.758-.758H98.047a.758.758,0,0,1,.758.758v.758a.758.758,0,0,1-.758.758H86.79V79.4h3.752a.758.758,0,0,1,.758.758V83.3h1.876V80.873A1.874,1.874,0,0,1,95.053,79h.359v-.758a.758.758,0,0,1,.758-.758h1.876a.758.758,0,0,1,.758.758v1.876a.758.758,0,0,1-.758.758H96.171a.758.758,0,0,1-.758-.758l1.188.429h-.359a1.516,1.516,0,0,0-1.517,1.517V83.3h.688v-.2a.758.758,0,0,1,.758-.758h1.876a.758.758,0,0,1,.758.758v1.876a.758.758,0,0,1-.758.758H96.171a.758.758,0,0,1-.758-.758v-.251h-.688v1.339a1.516,1.516,0,0,0,1.517,1.517H96.6l-1.188.429A.758.758,0,0,1,96.171,87.26Z" transform="translate(642.58 83.272)" fill="#4a86ff"/>
  </g>
</svg>
