<svg xmlns="http://www.w3.org/2000/svg" viewBox="0 0 24 24" class="design-iconfont">
  <g transform="translate(-721 -297)">
    <rect width="24" height="24" rx="4" transform="translate(721 297)" fill="rgba(74,134,255,.1)"/>
    <path d="M15.041,0a2.342,2.342,0,0,1,2.216,1.6,2.316,2.316,0,0,1-.807,2.611A8.676,8.676,0,0,0,13.186.928,2.3,2.3,0,0,1,15.041,0Zm-13,.052A2.341,2.341,0,0,1,4.424.979a8.755,8.755,0,0,0-3.23,3.3A2.363,2.363,0,0,1,.25,1.89,2.315,2.315,0,0,1,2.036.052ZM8.376,4.226a.734.734,0,0,0-.584.189.766.766,0,0,0-.258.567v4.5A.462.462,0,0,0,8,9.947h3.4a.709.709,0,0,0,.567-.258.8.8,0,0,0,.189-.584.779.779,0,0,0-.773-.67H9.028V5A.764.764,0,0,0,8.376,4.226ZM8.857.859a7.671,7.671,0,0,1,7.2,5.068,7.753,7.753,0,0,1-2.25,8.538L15.041,15.7a.851.851,0,0,1,0,1.22.875.875,0,0,1-.6.258.806.806,0,0,1-.6-.258l-1.477-1.477A7.65,7.65,0,0,1,5.3,15.427L3.806,16.922a.875.875,0,0,1-.6.258.806.806,0,0,1-.6-.258.851.851,0,0,1,0-1.22l1.254-1.254a7.714,7.714,0,0,1,5-13.589Z" transform="translate(724.299 300.5)" fill="#4a86ff"/>
  </g>
</svg>
