<svg xmlns="http://www.w3.org/2000/svg" width="20" height="20" viewBox="0 0 20 20">
  <g id="&#x6587;&#x4EF6;&#x7BA1;&#x7406;" transform="translate(-528.415 -2894.014)">
    <rect id="&#x77E9;&#x5F62;_15194" width="20" height="20" transform="translate(528.415 2894.014)" fill="currentColor" opacity="0"></rect>
    <g id="&#x7EC4;_12049" transform="translate(470.491 2734.839)">
      <path id="&#x8DEF;&#x5F84;_10759" d="M142.215,253.515a.749.749,0,0,0,.749.749h2.887a.749.749,0,0,0,0-1.5h-2.889A.747.747,0,0,0,142.215,253.515Zm12.744,1.643h-.451a.479.479,0,0,0,.451-.478Zm-13.659,0h.451a.479.479,0,0,1-.451-.478Zm13.659-5.58h-.451a.479.479,0,0,1,.451.478Zm-1.455-3.7h-.451a.479.479,0,0,1,.451.478ZM141.305,244h.451a.479.479,0,0,0-.451.478Z" transform="translate(-80.208 -80.404)" fill="currentColor"></path>
      <path id="&#x8DEF;&#x5F84;_10760" d="M75.057,167.688h-12.3a.749.749,0,0,0,0,1.5h12v5.571H61.092V163.6h5.246l.962,1.486a.748.748,0,0,0,.659.393h5.33v1.158a.749.749,0,1,0,1.5,0v-1.519a1.243,1.243,0,0,0-1.238-1.128h-1v0H68.37l-.984-1.521-.011-.016a.75.75,0,0,0-.63-.345h-4.9v0h-1a1.244,1.244,0,0,0-1.244,1.243v.009h0v11.752a1.242,1.242,0,0,0,1.1,1.143H75.075a1.242,1.242,0,0,0,1.174-1.076v-6.362A1.249,1.249,0,0,0,75.057,167.688Z" fill="currentColor"></path>
    </g>
  </g>
</svg>