<svg xmlns="http://www.w3.org/2000/svg" width="20" height="20" viewBox="0 0 20 20">
  <g id="&#x5E94;&#x7528;&#x7BA1;&#x7406;" transform="translate(-352.582 -2894.014)">
    <rect id="&#x77E9;&#x5F62;_15188" width="20" height="20" transform="translate(352.582 2894.014)" fill="currentColor" opacity="0"></rect>
    <g id="&#x7EC4;_12056">
      <path id="&#x8DEF;&#x5F84;_10769" d="M359.624,2898.226v4.14h-4.141v-4.14h4.139m.93-1.25h-5.995a.322.322,0,0,0-.322.322v6a.322.322,0,0,0,.322.321h6a.321.321,0,0,0,.32-.321h0v-6a.321.321,0,0,0-.32-.322Z" fill="currentColor"></path>
      <path id="&#x8DEF;&#x5F84;_10770" d="M359.624,2906.9v4.139h-4.141V2906.9h4.139m.93-1.25h-5.995a.322.322,0,0,0-.322.321v6a.322.322,0,0,0,.322.322h6a.321.321,0,0,0,.32-.322v-6a.32.32,0,0,0-.32-.32h0Z" fill="currentColor"></path>
      <path id="&#x8DEF;&#x5F84;_10771" d="M366.367,2897.369l2.927,2.927-2.927,2.925-2.925-2.925,2.927-2.927m0-1.635a.317.317,0,0,0-.227.1l-4.242,4.24a.322.322,0,0,0,0,.454l4.24,4.24a.322.322,0,0,0,.454,0l4.24-4.241a.32.32,0,0,0,0-.454l-4.24-4.239a.319.319,0,0,0-.227-.1Z" fill="currentColor"></path>
      <path id="&#x8DEF;&#x5F84;_10772" d="M368.437,2906.9v4.139H364.3V2906.9h4.14m.928-1.25h-6a.321.321,0,0,0-.321.321h0v6a.322.322,0,0,0,.321.322h6a.322.322,0,0,0,.322-.322v-6a.321.321,0,0,0-.322-.32Z" fill="currentColor"></path>
    </g>
  </g>
</svg>