<svg xmlns="http://www.w3.org/2000/svg" width="20" height="20" viewBox="0 0 20 20">
  <g id="&#x9ED8;&#x8BA4;&#x83DC;&#x5355;&#x56FE;&#x6807;" transform="translate(-573.893 -63)">
    <rect id="&#x77E9;&#x5F62;_15217" width="20" height="20" transform="translate(573.893 63)" fill="none"></rect>
    <path id="&#x8DEF;&#x5F84;_10761" d="M74.765,0H68.64A2.127,2.127,0,0,0,66.6,2.041l-.591.014a2.044,2.044,0,0,0-1.961,2.027V14.291a2.126,2.126,0,0,0,2.041,2.041h7.657a2.127,2.127,0,0,0,2.041-2.041H76.3a2.127,2.127,0,0,0,2.041-2.041V4.094ZM73.743,15.313H66.088a1.071,1.071,0,0,1-1.022-1.022V4.082a1.013,1.013,0,0,1,.974-1l.559-.016V12.25a2.126,2.126,0,0,0,2.041,2.041h6.125a1.072,1.072,0,0,1-1.022,1.022Zm3.573-3.063A1.072,1.072,0,0,1,76.3,13.272H68.64a1.071,1.071,0,0,1-1.022-1.022V2.041A1.072,1.072,0,0,1,68.64,1.02h5.1c-.008,1.175,0,2.055,0,2.055A2.1,2.1,0,0,0,75.785,5.1h1.532Zm-1.53-8.168c-.545,0-1.022-.988-1.022-1.518V1.034l2.552,3.049h-1.53ZM74.765,7.155H70.17a.511.511,0,0,0,0,1.022h4.595a.511.511,0,0,0,0-1.022Zm0,2.55H70.17a.511.511,0,1,0,0,1.022h4.595a.511.511,0,1,0,0-1.022Z" transform="translate(512.701 64.834)" fill="currentColor"></path>
  </g>
</svg>