<svg xmlns="http://www.w3.org/2000/svg" width="20" height="20" viewBox="0 0 20 20">
  <g id="&#x6570;&#x636E;&#x5B57;&#x5178;" transform="translate(-289.665 -2894.014)">
    <rect id="&#x77E9;&#x5F62;_15186" width="20" height="20" transform="translate(289.665 2894.014)" fill="currentColor" opacity="0"></rect>
    <g id="&#x7EC4;_12049">
      <path id="&#x8DEF;&#x5F84;_10758" d="M292.1,2908.406l-1.221-.27,4.265-11.759h13.337v9.155h-1.25v-7.906H296.152Z" fill="currentColor"></path>
      <path id="&#x8DEF;&#x5F84;_10759" d="M308.486,2911.65H294.058a3.213,3.213,0,1,1,0-6.426h14.432v1.25H294.058a1.963,1.963,0,1,0,0,3.926h14.431Z" fill="currentColor"></path>
      <path id="&#x8DEF;&#x5F84;_10760" d="M295.068,2907.812h11.484v1.25H295.068Z" fill="currentColor"></path>
      <path id="&#x8DEF;&#x5F84;_10761" d="M301.377,2904.335l-2.685-2.588-1.93,2.042-.908-.859,2.8-2.958,2.745,2.646,4.078-3.761.848.919Z" fill="currentColor"></path>
    </g>
  </g>
</svg>