<svg xmlns="http://www.w3.org/2000/svg" width="20" height="20" viewBox="0 0 20 20">
  <g id="&#x9644;&#x4EF6;&#x5217;&#x8868;" transform="translate(-562.999 -2894.014)">
    <rect id="&#x77E9;&#x5F62;_15195" width="20" height="20" transform="translate(562.999 2894.014)" fill="currentColor" opacity="0"></rect>
    <path id="&#x8DEF;&#x5F84;_10800" d="M571.207,2912.672a5.479,5.479,0,0,1-3.782-1.481,4.9,4.9,0,0,1-.253-6.924c.081-.087.166-.173.253-.253l6.435-6.105a4.074,4.074,0,0,1,5.419,0,3.5,3.5,0,0,1,.189,4.952c-.061.066-.124.129-.189.19l-6.437,6.107a2.472,2.472,0,0,1-3.275,0,2.122,2.122,0,0,1-.108-3c.034-.038.071-.074.108-.109l6.435-6.108a.832.832,0,0,1,1.129,0,.731.731,0,0,1,.04,1.031l-.04.039-6.435,6.109a.654.654,0,0,0-.037.925l.037.038a.746.746,0,0,0,1.015,0l6.435-6.1a2.051,2.051,0,0,0,.1-2.9c-.033-.036-.069-.07-.1-.1a2.328,2.328,0,0,0-3.16,0l-6.434,6.107a3.44,3.44,0,0,0-.176,4.86q.085.091.176.176a3.9,3.9,0,0,0,5.308,0l6.434-6.106a.832.832,0,0,1,1.129,0,.731.731,0,0,1,.039,1.033c-.012.013-.025.025-.039.038l-6.435,6.107a5.474,5.474,0,0,1-3.783,1.48Z" transform="translate(-0.762 -0.761)" fill="currentColor"></path>
  </g>
</svg>