<svg xmlns="http://www.w3.org/2000/svg" width="20" height="20" viewBox="0 0 20 20">
  <g id="&#x56FE;&#x7247;&#x5217;&#x8868;" transform="translate(-428.624 -63.393)">
    <rect id="&#x77E9;&#x5F62;_15203" width="20" height="20" transform="translate(428.624 63.393)" fill="none"></rect>
    <g id="&#x7EC4;_12048" transform="translate(422.343 -35.992)">
      <path id="&#x8DEF;&#x5F84;_10757" d="M23.466,102.4H9.1a1.417,1.417,0,0,0-1.417,1.417v11.135A1.417,1.417,0,0,0,9.1,116.369H23.466a1.417,1.417,0,0,0,1.417-1.417V103.817A1.417,1.417,0,0,0,23.466,102.4ZM9.1,103.443H23.466a.371.371,0,0,1,.374.374v7.424L20.5,108.276a.524.524,0,0,0-.661-.026l-4.146,3.112L13.5,109.8a.509.509,0,0,0-.6,0l-4.173,2.956v-8.936A.371.371,0,0,1,9.1,103.443Zm14.369,11.883H9.1a.371.371,0,0,1-.374-.374v-.921l4.477-3.164,4.207,3a.523.523,0,0,0,.608-.852L16.581,112l3.547-2.66,3.59,3.19a.584.584,0,0,0,.122.078v2.347A.371.371,0,0,1,23.466,115.326Z" transform="translate(0 0)" fill="currentColor"></path>
      <path id="&#x8DEF;&#x5F84;_10758" d="M186.493,219.386a2.173,2.173,0,1,0-2.173-2.173A2.174,2.174,0,0,0,186.493,219.386Zm0-3.3a1.13,1.13,0,1,1-1.13,1.13A1.128,1.128,0,0,1,186.493,216.083Z" transform="translate(-173.641 -110.728)" fill="currentColor"></path>
    </g>
  </g>
</svg>