<svg xmlns="http://www.w3.org/2000/svg" width="20" height="20" viewBox="0 0 20 20">
  <g id="&#x6D88;&#x606F;&#x6A21;&#x677F;" transform="translate(-654.665 -2894.014)">
    <rect id="&#x77E9;&#x5F62;_15198" width="20" height="20" transform="translate(654.665 2894.014)" fill="currentColor" opacity="0"></rect>
    <path id="&#x8DEF;&#x5F84;_10805" d="M656.918,2897.368a1.107,1.107,0,0,1,1.112-1.1h4.416a1.11,1.11,0,0,1,1.112,1.1v13.292a1.107,1.107,0,0,1-1.112,1.1H658.03a1.11,1.11,0,0,1-1.112-1.1Zm1.107.559V2910.1a.553.553,0,0,0,.551.554H661.9a.555.555,0,0,0,.552-.554v-12.174a.553.553,0,0,0-.551-.553h-3.325a.554.554,0,0,0-.551.553Zm6.64-.549a1.112,1.112,0,0,1,1.11-1.112H671.3a1.112,1.112,0,0,1,1.11,1.112v4.417a1.109,1.109,0,0,1-1.109,1.111h-5.529a1.111,1.111,0,0,1-1.11-1.111v-4.416Zm1.107.547v3.324a.553.553,0,0,0,.551.551h4.432a.554.554,0,0,0,.551-.551v-3.324a.554.554,0,0,0-.551-.552h-4.432A.555.555,0,0,0,665.772,2897.925Zm-1.107,7.2a1.11,1.11,0,0,1,1.109-1.11H671.3a1.109,1.109,0,0,1,1.11,1.109h0v5.527a1.11,1.11,0,0,1-1.109,1.11h-5.529a1.11,1.11,0,0,1-1.11-1.109h0Zm1.107.548v4.432a.555.555,0,0,0,.551.551h4.432a.555.555,0,0,0,.551-.551v-4.433a.553.553,0,0,0-.551-.55h-4.432a.553.553,0,0,0-.551.55Z" fill="currentColor"></path>
  </g>
</svg>