<svg xmlns="http://www.w3.org/2000/svg" width="20" height="20" viewBox="0 0 20 20">
  <g id="&#x6D88;&#x606F;&#x4EFB;&#x52A1;" transform="translate(-682.582 -2894.014)">
    <rect id="&#x77E9;&#x5F62;_15199" width="20" height="20" transform="translate(682.582 2894.014)" fill="currentColor" opacity="0"></rect>
    <path id="&#x8DEF;&#x5F84;_10806" d="M686.543,2897.426a.517.517,0,0,0-.549.486.329.329,0,0,0,0,.063v12.078a.518.518,0,0,0,.486.549.34.34,0,0,0,.063,0h12.078a.517.517,0,0,0,.549-.486.329.329,0,0,0,0-.063v-12.078a.518.518,0,0,0-.486-.549.34.34,0,0,0-.063,0Zm0-1.1h12.078a1.688,1.688,0,0,1,1.647,1.647v12.078a1.688,1.688,0,0,1-1.647,1.647H686.543a1.688,1.688,0,0,1-1.647-1.647v-12.078A1.688,1.688,0,0,1,686.543,2896.328Zm6.588,4.392h3.294a.518.518,0,0,1,.549.486q0,.031,0,.063a.518.518,0,0,1-.486.549h-3.357a.519.519,0,0,1-.549-.486.339.339,0,0,1,0-.063.518.518,0,0,1,.486-.549Zm-3.294,6.588a.549.549,0,1,0-.534-.534A.549.549,0,0,0,689.837,2907.308Zm0,1.1a1.647,1.647,0,1,1,1.647-1.647A1.647,1.647,0,0,1,689.837,2908.406Zm-.108-6.7-1.208-1.208a.544.544,0,0,0-.769.769h0l1.537,1.537a.833.833,0,0,0,.439.219.655.655,0,0,0,.439-.11l2.306-2.306a.543.543,0,0,0-.769-.768Zm3.4,4.5h3.292a.549.549,0,1,1,.03,1.1h-3.324a.549.549,0,0,1-.031-1.1h.033Z" fill="currentColor"></path>
  </g>
</svg>