<svg xmlns="http://www.w3.org/2000/svg" width="20" height="20" viewBox="0 0 20 20">
  <g id="&#x5F52;&#x6863;&#x6D88;&#x606F;&#x4EFB;&#x52A1;" transform="translate(-710.915 -2894.014)">
    <rect id="&#x77E9;&#x5F62;_15200" width="20" height="20" transform="translate(710.915 2894.014)" fill="currentColor" opacity="0"></rect>
    <g id="&#x7EC4;_12069">
      <path id="&#x8DEF;&#x5F84;_10807" d="M715.267,2900.512h11.3a.589.589,0,0,0,0-1.177h-11.3a.589.589,0,1,0,0,1.177Zm1.3-2.828h8.7a.589.589,0,0,0,0-1.177h-8.7a.589.589,0,0,0,0,1.177Zm6.658,8.542h-4.613a.588.588,0,1,0,0,1.176h4.612a.588.588,0,1,0,0-1.176Z" fill="currentColor"></path>
      <path id="&#x8DEF;&#x5F84;_10808" d="M727.55,2902.106H714.281a1.181,1.181,0,0,0-1.177,1.177v7.06a1.181,1.181,0,0,0,1.177,1.177H727.55a1.181,1.181,0,0,0,1.177-1.177v-7.06A1.181,1.181,0,0,0,727.55,2902.106Zm0,8.233H714.284v-7.054h13.262Z" fill="currentColor"></path>
    </g>
  </g>
</svg>