<svg xmlns="http://www.w3.org/2000/svg" id="&#x8BBE;&#x7F6E;" width="20" height="20" viewBox="0 0 20 20" fill="currentColor">
  <rect id="&#x77E9;&#x5F62;_13579" width="20" height="20" rx="0.289"  opacity="0"></rect>
  <path id="&#x8DEF;&#x5F84;_2417" d="M61.367,2174.29H58.31a1.09,1.09,0,0,1-1.09-1.09v-.732a1.091,1.091,0,0,0-.575-.957c-.1-.053-.194-.109-.289-.167a1.094,1.094,0,0,0-1.117-.02l-.635.367a1.09,1.09,0,0,1-1.488-.4l-1.529-2.648a1.09,1.09,0,0,1,.4-1.489l.627-.362a1.087,1.087,0,0,0,.541-.977c0-.06,0-.121,0-.182s0-.107,0-.161a1.091,1.091,0,0,0-.542-.976l-.626-.362a1.09,1.09,0,0,1-.4-1.489L53.116,2160a1.088,1.088,0,0,1,1.488-.4l.617.356a1.089,1.089,0,0,0,1.118-.021c.1-.062.2-.121.307-.178a1.088,1.088,0,0,0,.574-.956v-.711a1.09,1.09,0,0,1,1.09-1.09h3.057a1.09,1.09,0,0,1,1.09,1.09v.711a1.088,1.088,0,0,0,.574.956c.1.057.206.116.307.178a1.086,1.086,0,0,0,1.116.022l.545-.314a1.111,1.111,0,0,1,1.563.356l1.528,2.647a1.089,1.089,0,0,1-.4,1.489l-.626.362a1.093,1.093,0,0,0-.542.976c0,.054,0,.107,0,.161s0,.122,0,.182a1.087,1.087,0,0,0,.539.976l.554.32a1.111,1.111,0,0,1,.474,1.532l-1.528,2.648a1.091,1.091,0,0,1-1.489.4l-.635-.367a1.092,1.092,0,0,0-1.116.02c-.095.058-.192.114-.29.167a1.091,1.091,0,0,0-.575.957v.732A1.09,1.09,0,0,1,61.367,2174.29Zm-1.672-1.385h.287a1.09,1.09,0,0,0,1.09-1.089v-.219a1.09,1.09,0,0,1,.74-1.032l.516-.175a1.068,1.068,0,0,0,.367-.211l.419-.367a1.092,1.092,0,0,1,1.262-.123l.19.11a1.09,1.09,0,0,0,1.488-.4l.144-.249a1.09,1.09,0,0,0-.4-1.489l-.859-.5.1-.487a5.4,5.4,0,0,0,0-2.073l-.1-.485.853-.493a1.09,1.09,0,0,0,.4-1.489l-.144-.248a1.088,1.088,0,0,0-1.488-.4l-.174.1a1.09,1.09,0,0,1-1.265-.126l-.423-.372a1.093,1.093,0,0,0-.37-.214l-.522-.177a1.089,1.089,0,0,1-.74-1.032v-.2a1.09,1.09,0,0,0-1.09-1.09h-.287a1.09,1.09,0,0,0-1.09,1.09v.2a1.088,1.088,0,0,1-.74,1.032l-.521.177a1.083,1.083,0,0,0-.37.214l-.424.372a1.089,1.089,0,0,1-1.264.126l-.174-.1a1.089,1.089,0,0,0-1.489.4l-.144.248a1.09,1.09,0,0,0,.4,1.489l.854.493-.1.485a5.369,5.369,0,0,0,0,2.073l.1.487-.859.5a1.09,1.09,0,0,0-.4,1.489l.144.249a1.091,1.091,0,0,0,1.489.4l.189-.11a1.091,1.091,0,0,1,1.262.123l.419.367a1.072,1.072,0,0,0,.368.211l.515.175a1.089,1.089,0,0,1,.74,1.032v.219A1.09,1.09,0,0,0,59.695,2172.905Z" transform="translate(-49.839 -2155.645)" ></path>
  <path id="&#x8DEF;&#x5F84;_2418" d="M62.655,2168.531c-3.424,2.589-7.226-.174-6.668-3.549a3.909,3.909,0,0,1,3.189-3.188c3.375-.558,6.137,3.244,3.549,6.667A.355.355,0,0,1,62.655,2168.531Zm-.915-4.859a2.744,2.744,0,0,0-3.874,3.876.369.369,0,0,0,.072.071,2.743,2.743,0,0,0,3.873-3.876A.339.339,0,0,0,61.74,2163.672Z" transform="translate(-49.839 -2155.645)" ></path>
</svg>