<svg xmlns="http://www.w3.org/2000/svg" width="20" height="20" viewBox="0 0 20 20">
  <g id="&#x4F01;&#x4E1A;&#x6743;&#x9650;" transform="translate(-412.165 -2894.014)">
    <rect id="&#x77E9;&#x5F62;_15190" width="20" height="20" transform="translate(412.165 2894.014)" fill="currentColor" opacity="0"></rect>
    <g id="&#x7EC4;_12058">
      <path id="&#x8DEF;&#x5F84;_10778" d="M425.153,2912.217h-9.961v-12.4l10.586-4.019v6.488h-1.25v-4.677l-8.086,3.071v10.282h8.711Z" fill="currentColor"></path>
      <path id="&#x8DEF;&#x5F84;_10779" d="M414.353,2910.976h15.625v1.25H414.353Z" fill="currentColor"></path>
      <path id="&#x8DEF;&#x5F84;_10780" d="M422.536,2903.095h-4.667v1.25h4.667Z" fill="currentColor"></path>
      <path id="&#x8DEF;&#x5F84;_10781" d="M422.536,2906.747h-4.667V2908h4.667Z" fill="currentColor"></path>
      <path id="&#x8DEF;&#x5F84;_10782" d="M426.8,2904.266a.813.813,0,0,1,.811.811,2.037,2.037,0,0,1-.206.788,1.9,1.9,0,0,1-.482.667l-.135.107a1.2,1.2,0,0,0-.118-.106,1.9,1.9,0,0,1-.477-.664,2.053,2.053,0,0,1-.2-.792.812.812,0,0,1,.811-.81m1.831,4.492v.449h-3.672v-.449h3.672m-1.831-5.743a2.061,2.061,0,0,0-2.061,2.06h0a3.437,3.437,0,0,0,1.15,2.429H423.71v2.948h6.169v-2.945H427.7a3.433,3.433,0,0,0,1.16-2.432,2.061,2.061,0,0,0-2.061-2.061Z" fill="currentColor"></path>
    </g>
  </g>
</svg>