<svg xmlns="http://www.w3.org/2000/svg" width="20" height="20" viewBox="0 0 20 20">
  <g id="流程设计" transform="translate(-65.738 -105.857)">
    <rect id="矩形_15301" data-name="矩形 15301" width="20" height="20" transform="translate(65.738 105.857)" fill="none"/>
    <g id="组_12184" data-name="组 12184" transform="translate(-36.223 240.195) rotate(-90)">
      <path id="路径_10797" data-name="路径 10797" d="M118.735,121h-1.386a1.871,1.871,0,0,1-1.869-1.869V116.12a1.871,1.871,0,0,1,1.869-1.869h1.386a1.871,1.871,0,0,1,1.869,1.869v3.012A1.871,1.871,0,0,1,118.735,121Zm-1.386-5.5a.624.624,0,0,0-.623.623v3.012a.624.624,0,0,0,.623.623h1.386a.624.624,0,0,0,.623-.623V116.12a.624.624,0,0,0-.623-.623Zm7.681,5.5h-1.386a1.871,1.871,0,0,1-1.869-1.869V116.12a1.871,1.871,0,0,1,1.869-1.869h1.386a1.871,1.871,0,0,1,1.869,1.869v3.012A1.871,1.871,0,0,1,125.031,121Zm-1.386-5.5a.624.624,0,0,0-.623.623v3.012a.624.624,0,0,0,.623.623h1.386a.624.624,0,0,0,.623-.623V116.12a.624.624,0,0,0-.623-.623Zm5.119-5.826h-8.852a1.871,1.871,0,0,1-1.869-1.869v-3.012a1.871,1.871,0,0,1,1.869-1.869h8.852a1.871,1.871,0,0,1,1.869,1.869V107.8A1.871,1.871,0,0,1,128.763,109.671Zm-8.852-5.5a.624.624,0,0,0-.623.623V107.8a.624.624,0,0,0,.623.623h8.852a.624.624,0,0,0,.623-.623v-3.012a.624.624,0,0,0-.623-.623ZM131.326,121H129.94a1.871,1.871,0,0,1-1.869-1.869V116.12a1.871,1.871,0,0,1,1.869-1.869h1.386a1.871,1.871,0,0,1,1.869,1.869v3.012A1.871,1.871,0,0,1,131.326,121Zm-1.386-5.5a.624.624,0,0,0-.623.623v3.012a.624.624,0,0,0,.623.623h1.386a.624.624,0,0,0,.623-.623V116.12a.624.624,0,0,0-.623-.623Z" fill="currentColor"/>
      <path id="路径_10798" data-name="路径 10798" d="M481.51,375.31h1.246V381H481.51Z" transform="translate(-357.796 -266.262)" fill="currentColor"/>
      <path id="路径_10799" data-name="路径 10799" d="M215.517,482.108h-1.246V480.1a.312.312,0,0,0-.312-.312H203.238a.312.312,0,0,0-.312.312v2.011H201.68V480.1a1.559,1.559,0,0,1,1.558-1.558h10.721a1.559,1.559,0,0,1,1.558,1.558Z" transform="translate(-84.261 -367.17)" fill="currentColor"/>
    </g>
  </g>
</svg>
