<svg xmlns="http://www.w3.org/2000/svg" width="20" height="20" viewBox="0 0 20 20">
  <g id="业务系统" transform="translate(-105.269 -105.859)">
    <rect id="矩形_15300" data-name="矩形 15300" width="20" height="20" transform="translate(105.269 105.859)" fill="none"/>
    <path id="路径_10800" data-name="路径 10800" d="M57.894,53.188H53.022a.664.664,0,0,0,0,1.329h4.872a.664.664,0,1,0,0-1.329Zm-7.086-2.657a.664.664,0,0,0,0-1.329H49.7a.886.886,0,0,0-.886.886v3.543a.886.886,0,0,0,.886.886h1.107a.664.664,0,1,0,0-1.329h-.664V50.531h.664Zm7.086,9.744H53.022a.664.664,0,0,0,0,1.329h4.872a.664.664,0,1,0,0-1.329Zm0-11.072H53.022a.664.664,0,0,0,0,1.329h4.872a.664.664,0,1,0,0-1.329Zm-7.086,8.415a.664.664,0,1,0,0-1.329H49.7a.886.886,0,0,0-.886.886v3.543a.886.886,0,0,0,.886.886h1.107a.664.664,0,1,0,0-1.329h-.664V57.617h.664ZM63.6,58.946a.664.664,0,0,0,.664-.664V48.317a1.772,1.772,0,0,0-1.772-1.772H48.317a1.772,1.772,0,0,0-1.772,1.772V62.489a1.772,1.772,0,0,0,1.772,1.772H62.489a1.772,1.772,0,0,0,1.772-1.772v-1.55a.664.664,0,1,0-1.329,0v1.55a.443.443,0,0,1-.443.443H48.317a.443.443,0,0,1-.443-.443V48.317a.443.443,0,0,1,.443-.443H62.489a.443.443,0,0,1,.443.443v9.965a.664.664,0,0,0,.664.664ZM62.1,50.088a.886.886,0,0,0-.886-.886H60.109a.664.664,0,0,0,0,1.329h.664v2.657h-.664a.664.664,0,0,0,0,1.329h1.107a.886.886,0,0,0,.886-.886V50.088Zm-4.207,6.2H53.022a.664.664,0,0,0,0,1.329h4.872a.664.664,0,1,0,0-1.329Zm2.214,3.986a.664.664,0,0,0,0,1.329h1.107a.886.886,0,0,0,.886-.886V57.174a.886.886,0,0,0-.886-.886H60.109a.664.664,0,0,0,0,1.329h.664v2.657h-.664Z" transform="translate(59.865 60.455)" fill="currentColor"/>
  </g>
</svg>
