<svg xmlns="http://www.w3.org/2000/svg" width="20" height="20" viewBox="0 0 20 20">
  <g id="任务管理" transform="translate(-134.504 -105.9)">
    <rect id="矩形_15299" data-name="矩形 15299" width="20" height="20" transform="translate(134.504 105.9)" fill="none"/>
    <g id="组_12185" data-name="组 12185" transform="translate(62.898 36.344)">
      <path id="路径_10801" data-name="路径 10801" d="M482.463,78.108H482.3l-1.9-1.118-1.9,1.107h-.166c-.528,0-1.138-.4-1.138-1.532V72.188a1.4,1.4,0,0,1,1.273-1.532h3.881a1.4,1.4,0,0,1,1.273,1.532v4.388C483.6,77.7,482.99,78.108,482.463,78.108Zm-2.07-2.557,1.967,1.149V72.188a.5.5,0,0,0-.083-.29h-3.768a.505.505,0,0,0-.083.29v4.523Z" transform="translate(-396.303)" fill="currentColor"/>
      <path id="路径_10802" data-name="路径 10802" d="M87.815,88.458H75.4A2.7,2.7,0,0,1,72.7,85.767V73.347A2.7,2.7,0,0,1,75.4,70.656h12.42a2.7,2.7,0,0,1,2.691,2.691v12.42A2.692,2.692,0,0,1,87.815,88.458ZM75.4,71.9a1.453,1.453,0,0,0-1.449,1.449v12.42A1.453,1.453,0,0,0,75.4,87.216h12.42a1.453,1.453,0,0,0,1.449-1.449V73.347A1.453,1.453,0,0,0,87.815,71.9Z" fill="currentColor"/>
      <path id="路径_10803" data-name="路径 10803" d="M234.819,546.043H224.365a.621.621,0,1,1,0-1.242h10.454a.623.623,0,0,1,.621.621A.616.616,0,0,1,234.819,546.043Zm-5.9-3.105h-4.554a.621.621,0,1,1,0-1.242h4.554a.623.623,0,0,1,.621.621A.616.616,0,0,1,228.919,542.938Z" transform="translate(-147.987 -461.518)" fill="currentColor"/>
    </g>
  </g>
</svg>
