<svg xmlns="http://www.w3.org/2000/svg" width="20" height="20" viewBox="0 0 20 20">
  <g id="工作流" transform="translate(-159 -161)">
    <rect id="矩形_15297" data-name="矩形 15297" width="20" height="20" transform="translate(159 161)" fill="none"/>
    <path id="路径_10796" data-name="路径 10796" d="M128.545,113a1.355,1.355,0,0,1,1.355,1.355v3.029a1.355,1.355,0,0,1-1.355,1.355H121.09a1.355,1.355,0,0,1-1.355-1.355v-1h-5.379v4.384h14.19a1.355,1.355,0,0,1,1.355,1.355v4.066a1.355,1.355,0,0,1-1.355,1.355h-5.379v1a1.355,1.355,0,0,1-1.355,1.355h-7.455A1.355,1.355,0,0,1,113,128.545v-3.029a1.355,1.355,0,0,1,1.355-1.355h7.455a1.355,1.355,0,0,1,1.355,1.355v.678h5.379v-4.066h-14.19A1.355,1.355,0,0,1,113,120.772v-4.384a1.355,1.355,0,0,1,1.355-1.355h5.379v-.678A1.355,1.355,0,0,1,121.09,113Zm-6.735,12.516h-7.455v3.029h7.455Zm6.735-11.161H121.09v3.029h7.455Z" transform="translate(47.55 49.55)" fill="currentColor"/>
  </g>
</svg>
